<?xml version="1.0" standalone="no"?>
<!DOCTYPE svg PUBLIC "-//W3C//DTD SVG 20010904//EN"
 "http://www.w3.org/TR/2001/REC-SVG-20010904/DTD/svg10.dtd">
<svg version="1.0" xmlns="http://www.w3.org/2000/svg"
 width="126.000000pt" height="127.000000pt" viewBox="0 0 126.000000 127.000000"
 preserveAspectRatio="xMidYMid meet">

<g transform="translate(0.000000,127.000000) scale(0.100000,-0.100000)"
fill="#000000" stroke="none">
<path d="M627 1092 c-22 -24 -21 -55 1 -75 36 -32 85 -10 85 38 0 49 -54 72
-86 37z"/>
<path d="M456 1055 c-4 -14 -1 -35 5 -48 19 -36 59 -87 70 -87 12 0 12 56 -1
102 -16 57 -63 77 -74 33z"/>
<path d="M817 1065 c-19 -18 -41 -110 -33 -132 6 -14 11 -12 36 12 36 35 54
77 46 110 -7 28 -27 32 -49 10z"/>
<path d="M568 955 c2 -36 7 -65 12 -65 5 0 16 -3 26 -7 15 -5 16 -2 10 33 -6
31 -41 104 -49 104 -1 0 0 -29 1 -65z"/>
<path d="M738 992 c-19 -31 -40 -112 -29 -111 35 4 43 17 44 77 1 34 2 62 2
62 -1 0 -8 -13 -17 -28z"/>
<path d="M318 969 c-22 -13 -24 -62 -2 -83 34 -34 84 -8 84 44 0 42 -43 62
-82 39z"/>
<path d="M937 962 c-24 -27 -21 -59 8 -78 51 -33 104 21 71 71 -20 30 -56 33
-79 7z"/>
<path d="M837 919 c-29 -29 -37 -44 -32 -59 10 -31 27 -20 53 33 32 63 25 73
-21 26z"/>
<path d="M450 937 c0 -20 35 -93 48 -101 5 -3 14 6 21 21 6 14 10 26 9 27 -2
0 -20 17 -41 35 -29 27 -37 31 -37 18z"/>
<path d="M738 858 c-29 -10 -32 -18 -22 -55 7 -26 31 -30 59 -9 18 13 18 16 5
44 -13 26 -18 28 -42 20z"/>
<path d="M542 835 c-7 -15 -11 -29 -10 -30 2 -1 17 -10 35 -19 l32 -16 10 37
c12 43 13 41 -25 49 -26 5 -32 2 -42 -21z"/>
<path d="M642 804 c-8 -28 -8 -36 4 -41 28 -10 45 5 38 34 -13 55 -26 58 -42
7z"/>
<path d="M356 789 c37 -36 44 -40 63 -30 27 15 19 28 -33 52 -65 30 -75 23
-30 -22z"/>
<path d="M945 816 c-16 -8 -39 -21 -50 -29 -19 -15 -19 -15 6 -27 23 -10 29
-8 66 29 43 43 35 52 -22 27z"/>
<path d="M203 814 c-21 -9 7 -52 40 -64 40 -14 120 -13 112 1 -4 6 -25 24 -47
40 -38 27 -75 35 -105 23z"/>
<path d="M1024 795 c-62 -37 -64 -55 -8 -55 50 0 98 20 108 46 16 41 -38 46
-100 9z"/>
<path d="M497 774 c-3 -3 4 -21 15 -40 l21 -35 24 23 24 22 -33 18 c-37 19
-42 21 -51 12z"/>
<path d="M786 765 c-10 -8 -24 -16 -30 -18 -11 -4 20 -47 34 -47 6 0 40 64 40
75 0 10 -26 4 -44 -10z"/>
<path d="M438 734 c-32 -17 -31 -14 -18 -49 9 -23 14 -26 38 -20 40 10 45 19
28 54 -9 17 -18 31 -19 31 -1 -1 -14 -8 -29 -16z"/>
<path d="M837 714 c-17 -34 -17 -35 9 -44 30 -12 54 -13 54 -2 0 4 3 17 6 29
5 17 -1 25 -23 37 -30 15 -30 15 -46 -20z"/>
<path d="M289 688 c40 -25 101 -35 101 -17 0 27 -16 34 -73 35 l-57 0 29 -18z"/>
<path d="M940 698 c0 -3 -3 -13 -6 -22 -9 -23 37 -21 86 4 22 11 40 22 40 23
0 1 -27 2 -60 2 -33 0 -60 -3 -60 -7z"/>
<path d="M187 652 c-21 -23 -22 -56 -1 -76 34 -34 84 -11 84 39 0 51 -50 73
-83 37z"/>
<path d="M1072 654 c-41 -28 -16 -94 36 -94 21 0 52 34 52 57 0 17 -36 53 -53
53 -7 0 -23 -7 -35 -16z"/>
<path d="M490 640 c-8 -5 -25 -10 -37 -10 -38 0 -26 -25 17 -37 l40 -10 0 33
c0 38 1 37 -20 24z"/>
<path d="M810 613 c0 -30 3 -34 18 -28 9 4 27 10 40 12 35 8 26 28 -18 40
l-40 10 0 -34z"/>
<path d="M325 558 c-16 -6 -39 -17 -50 -24 -17 -13 -13 -14 42 -14 46 0 62 4
67 16 14 37 -1 42 -59 22z"/>
<path d="M420 545 c-13 -35 -14 -32 20 -50 29 -15 30 -15 46 16 17 35 12 44
-28 54 -24 6 -29 3 -38 -20z"/>
<path d="M848 558 c-27 -9 -28 -10 -12 -41 9 -18 18 -33 19 -35 2 -2 14 3 27
10 12 7 25 14 26 15 2 1 1 15 -3 32 -7 33 -14 35 -57 19z"/>
<path d="M936 548 c9 -31 5 -29 70 -26 l59 3 -45 22 c-25 13 -55 23 -68 23
-20 0 -22 -4 -16 -22z"/>
<path d="M511 494 c-28 -47 -17 -57 32 -29 l37 21 -24 23 -23 22 -22 -37z"/>
<path d="M772 514 c-30 -21 -28 -29 13 -53 42 -25 52 -13 27 33 -18 33 -20 34
-40 20z"/>
<path d="M244 479 c-18 -5 -36 -19 -42 -34 -11 -23 -9 -26 14 -35 30 -12 84
12 123 54 l24 26 -44 -1 c-24 0 -58 -5 -75 -10z"/>
<path d="M972 478 c5 -16 75 -64 104 -72 11 -3 28 0 38 7 42 30 -23 77 -106
77 -27 0 -38 -4 -36 -12z"/>
<path d="M356 440 c-44 -45 -31 -53 34 -20 49 25 56 36 31 49 -26 14 -21 17
-65 -29z"/>
<path d="M902 466 c-27 -15 -18 -26 41 -51 60 -25 67 -17 25 25 -22 22 -41 40
-42 40 0 -1 -11 -6 -24 -14z"/>
<path d="M642 420 c13 -48 22 -50 37 -9 16 45 14 49 -18 49 -29 0 -29 0 -19
-40z"/>
<path d="M550 432 c-20 -17 -21 -21 -9 -43 8 -13 14 -25 15 -27 1 -3 64 19 64
22 0 2 -5 17 -11 35 -13 35 -27 39 -59 13z"/>
<path d="M716 428 c-10 -38 -7 -46 22 -56 25 -9 30 -7 45 19 16 29 16 29 -13
44 -39 20 -47 19 -54 -7z"/>
<path d="M476 359 c-10 -18 -22 -46 -26 -64 l-7 -33 41 41 c30 31 39 47 35 61
-9 31 -23 29 -43 -5z"/>
<path d="M805 370 c-5 -16 3 -32 34 -65 47 -51 55 -36 19 35 -26 50 -43 60
-53 30z"/>
<path d="M322 344 c-24 -17 -30 -62 -10 -82 15 -15 61 -15 76 0 20 20 14 65
-10 82 -12 9 -25 16 -28 16 -3 0 -16 -7 -28 -16z"/>
<path d="M941 341 c-25 -25 -27 -54 -5 -75 22 -23 60 -20 78 6 19 27 20 39 4
60 -22 28 -55 31 -77 9z"/>
<path d="M593 339 c-20 -7 -23 -15 -23 -66 1 -54 2 -56 16 -38 15 21 37 91 32
105 -2 4 -13 4 -25 -1z"/>
<path d="M704 334 c3 -9 6 -23 6 -32 0 -9 10 -34 23 -54 l22 -37 -2 62 c-1 58
-3 62 -28 69 -21 5 -25 4 -21 -8z"/>
<path d="M506 285 c-52 -55 -70 -135 -30 -135 37 0 74 87 62 146 -3 17 -7 15
-32 -11z"/>
<path d="M786 301 c-18 -29 16 -137 46 -147 29 -9 41 9 34 49 -8 42 -69 117
-80 98z"/>
<path d="M632 214 c-26 -18 -29 -56 -6 -78 39 -40 105 4 85 56 -8 22 -29 38
-50 38 -3 0 -17 -7 -29 -16z"/>
</g>
</svg>
